<svg width="64" height="64" viewBox="0 0 64 64" fill="none" xmlns="http://www.w3.org/2000/svg">
<path fill-rule="evenodd" clip-rule="evenodd" d="M61.7143 14.1904C62.9767 14.1904 64 15.2246 64 16.5004L64 61.6895C64 62.9652 62.9767 63.9994 61.7143 63.9994C60.452 63.9994 59.4286 62.9652 59.4286 61.6895L59.4286 16.5004C59.4286 15.2246 60.452 14.1904 61.7143 14.1904Z" fill="#49495C"/>
<path fill-rule="evenodd" clip-rule="evenodd" d="M45.2861 22.4922C46.5484 22.4922 47.5718 23.5264 47.5718 24.8021L47.5718 61.6897C47.5718 62.9655 46.5484 63.9997 45.2861 63.9997C44.0237 63.9997 43.0004 62.9655 43.0004 61.6897L43.0004 24.8021C43.0004 23.5264 44.0237 22.4922 45.2861 22.4922Z" fill="#49495C"/>
<path fill-rule="evenodd" clip-rule="evenodd" d="M28.8569 34.9443C30.1192 34.9443 31.1426 35.9785 31.1426 37.2543L31.1426 61.6896C31.1426 62.9654 30.1192 63.9996 28.8569 63.9996C27.5945 63.9996 26.5712 62.9654 26.5712 61.6896L26.5712 37.2543C26.5712 35.9785 27.5945 34.9443 28.8569 34.9443Z" fill="#49495C"/>
<path fill-rule="evenodd" clip-rule="evenodd" d="M12.4287 43.2461C13.691 43.2461 14.7144 44.2803 14.7144 45.556L14.7144 61.6899C14.7144 62.9656 13.691 63.9998 12.4287 63.9998C11.1663 63.9998 10.143 62.9656 10.143 61.6899L10.143 45.556C10.143 44.2803 11.1663 43.2461 12.4287 43.2461Z" fill="#49495C"/>
<path fill-rule="evenodd" clip-rule="evenodd" d="M36.2639 1.12184C36.9133 0.0278929 38.3174 -0.326835 39.3998 0.329533L48.3842 5.77739C49.094 6.20778 49.5181 6.99235 49.4929 7.82848C49.4677 8.66462 48.9972 9.42165 48.2628 9.80758L3.34067 33.415C2.22069 34.0035 0.840649 33.5631 0.258259 32.4312C-0.324131 31.2994 0.111673 29.9047 1.23165 29.3161L42.5281 7.61409L37.0479 4.29106C35.9654 3.6347 35.6144 2.21579 36.2639 1.12184Z" fill="#49495C"/>
</svg>
